<?xml version="1.0" standalone="no"?>
<!DOCTYPE svg PUBLIC "-//W3C//DTD SVG 20010904//EN"
 "http://www.w3.org/TR/2001/REC-SVG-20010904/DTD/svg10.dtd">
<svg version="1.0" xmlns="http://www.w3.org/2000/svg"
 width="187.000000pt" height="179.000000pt" viewBox="0 0 187.000000 179.000000"
 preserveAspectRatio="xMidYMid meet">

<g transform="translate(0.000000,179.000000) scale(0.100000,-0.100000)"
fill="#000000" stroke="none">
<path d="M776 1563 c-5 -26 -16 -277 -31 -698 -10 -282 -42 -421 -114 -493
-24 -24 -41 -32 -67 -32 -48 0 -68 12 -97 63 -80 136 -91 338 -21 383 51 34
188 -8 214 -65 8 -17 14 -21 18 -12 9 27 -59 79 -127 97 -59 15 -67 15 -97 0
-43 -20 -64 -63 -71 -145 -7 -79 12 -154 60 -245 65 -123 154 -126 243 -9 77
102 111 265 130 638 l6 120 29 -78 c15 -43 51 -125 79 -183 58 -116 73 -126
97 -59 22 62 82 259 114 375 16 58 26 85 23 61 -44 -317 14 -781 124 -1001 28
-55 44 -76 60 -78 29 -4 28 16 -2 76 -31 62 -50 132 -75 277 -43 254 -55 526
-37 863 8 156 8 164 -10 160 -30 -5 -66 -116 -146 -440 -40 -164 -76 -298 -79
-298 -3 0 -15 24 -27 53 -84 205 -149 434 -157 551 -8 109 -14 146 -25 146 -4
0 -11 -12 -14 -27z"/>
<path d="M1536 171 c-22 -24 -15 -51 12 -51 25 0 45 24 40 47 -5 25 -31 27
-52 4z"/>
</g>
</svg>
